<svg id="visual" viewBox="0 0 900 600" width="900" height="600" xmlns="http://www.w3.org/2000/svg" xmlns:xlink="http://www.w3.org/1999/xlink" version="1.1"><rect x="0" y="0" width="900" height="600" fill="#140021"></rect><path d="M0 271L50 271L50 241L100 241L100 268L150 268L150 281L200 281L200 265L250 265L250 272L300 272L300 304L350 304L350 243L400 243L400 290L450 290L450 241L500 241L500 306L550 306L550 250L600 250L600 274L650 274L650 289L700 289L700 270L750 270L750 277L800 277L800 275L850 275L850 252L900 252L900 295L900 601L900 601L850 601L850 601L800 601L800 601L750 601L750 601L700 601L700 601L650 601L650 601L600 601L600 601L550 601L550 601L500 601L500 601L450 601L450 601L400 601L400 601L350 601L350 601L300 601L300 601L250 601L250 601L200 601L200 601L150 601L150 601L100 601L100 601L50 601L50 601L0 601Z" fill="#e0f8d5"></path><path d="M0 308L50 308L50 357L100 357L100 375L150 375L150 305L200 305L200 327L250 327L250 346L300 346L300 319L350 319L350 343L400 343L400 338L450 338L450 369L500 369L500 375L550 375L550 365L600 365L600 355L650 355L650 369L700 369L700 373L750 373L750 331L800 331L800 344L850 344L850 361L900 361L900 347L900 601L900 601L850 601L850 601L800 601L800 601L750 601L750 601L700 601L700 601L650 601L650 601L600 601L600 601L550 601L550 601L500 601L500 601L450 601L450 601L400 601L400 601L350 601L350 601L300 601L300 601L250 601L250 601L200 601L200 601L150 601L150 601L100 601L100 601L50 601L50 601L0 601Z" fill="#acce9e"></path><path d="M0 408L50 408L50 421L100 421L100 404L150 404L150 385L200 385L200 405L250 405L250 434L300 434L300 421L350 421L350 371L400 371L400 433L450 433L450 411L500 411L500 415L550 415L550 390L600 390L600 401L650 401L650 407L700 407L700 433L750 433L750 417L800 417L800 424L850 424L850 407L900 407L900 423L900 601L900 601L850 601L850 601L800 601L800 601L750 601L750 601L700 601L700 601L650 601L650 601L600 601L600 601L550 601L550 601L500 601L500 601L450 601L450 601L400 601L400 601L350 601L350 601L300 601L300 601L250 601L250 601L200 601L200 601L150 601L150 601L100 601L100 601L50 601L50 601L0 601Z" fill="#79a569"></path><path d="M0 478L50 478L50 438L100 438L100 493L150 493L150 459L200 459L200 454L250 454L250 460L300 460L300 486L350 486L350 496L400 496L400 464L450 464L450 462L500 462L500 444L550 444L550 452L600 452L600 449L650 449L650 467L700 467L700 488L750 488L750 478L800 478L800 478L850 478L850 467L900 467L900 459L900 601L900 601L850 601L850 601L800 601L800 601L750 601L750 601L700 601L700 601L650 601L650 601L600 601L600 601L550 601L550 601L500 601L500 601L450 601L450 601L400 601L400 601L350 601L350 601L300 601L300 601L250 601L250 601L200 601L200 601L150 601L150 601L100 601L100 601L50 601L50 601L0 601Z" fill="#467e37"></path><path d="M0 530L50 530L50 517L100 517L100 522L150 522L150 552L200 552L200 537L250 537L250 522L300 522L300 505L350 505L350 527L400 527L400 524L450 524L450 506L500 506L500 515L550 515L550 511L600 511L600 543L650 543L650 531L700 531L700 503L750 503L750 556L800 556L800 541L850 541L850 506L900 506L900 506L900 601L900 601L850 601L850 601L800 601L800 601L750 601L750 601L700 601L700 601L650 601L650 601L600 601L600 601L550 601L550 601L500 601L500 601L450 601L450 601L400 601L400 601L350 601L350 601L300 601L300 601L250 601L250 601L200 601L200 601L150 601L150 601L100 601L100 601L50 601L50 601L0 601Z" fill="#005800"></path></svg>