<svg id="visual" viewBox="0 0 900 600" width="900" height="600" xmlns="http://www.w3.org/2000/svg" xmlns:xlink="http://www.w3.org/1999/xlink" version="1.1"><path d="M0 387L25 386.8C50 386.7 100 386.3 150 383.7C200 381 250 376 300 373.7C350 371.3 400 371.7 450 372C500 372.3 550 372.7 600 372C650 371.3 700 369.7 750 372.7C800 375.7 850 383.3 875 387.2L900 391L900 601L875 601C850 601 800 601 750 601C700 601 650 601 600 601C550 601 500 601 450 601C400 601 350 601 300 601C250 601 200 601 150 601C100 601 50 601 25 601L0 601Z" fill="#005800"></path><path d="M0 404L25 407.7C50 411.3 100 418.7 150 419.3C200 420 250 414 300 411.3C350 408.7 400 409.3 450 412C500 414.7 550 419.3 600 421.7C650 424 700 424 750 423.8C800 423.7 850 423.3 875 423.2L900 423L900 601L875 601C850 601 800 601 750 601C700 601 650 601 600 601C550 601 500 601 450 601C400 601 350 601 300 601C250 601 200 601 150 601C100 601 50 601 25 601L0 601Z" fill="#3b762d"></path><path d="M0 466L25 462.2C50 458.3 100 450.7 150 450.5C200 450.3 250 457.7 300 460C350 462.3 400 459.7 450 457C500 454.3 550 451.7 600 453C650 454.3 700 459.7 750 459.7C800 459.7 850 454.3 875 451.7L900 449L900 601L875 601C850 601 800 601 750 601C700 601 650 601 600 601C550 601 500 601 450 601C400 601 350 601 300 601C250 601 200 601 150 601C100 601 50 601 25 601L0 601Z" fill="#659555"></path><path d="M0 493L25 491.5C50 490 100 487 150 486.2C200 485.3 250 486.7 300 487.5C350 488.3 400 488.7 450 488.5C500 488.3 550 487.7 600 486.8C650 486 700 485 750 485.7C800 486.3 850 488.7 875 489.8L900 491L900 601L875 601C850 601 800 601 750 601C700 601 650 601 600 601C550 601 500 601 450 601C400 601 350 601 300 601C250 601 200 601 150 601C100 601 50 601 25 601L0 601Z" fill="#8db57e"></path><path d="M0 513L25 515.2C50 517.3 100 521.7 150 524.8C200 528 250 530 300 528.2C350 526.3 400 520.7 450 518.5C500 516.3 550 517.7 600 519.2C650 520.7 700 522.3 750 522.2C800 522 850 520 875 519L900 518L900 601L875 601C850 601 800 601 750 601C700 601 650 601 600 601C550 601 500 601 450 601C400 601 350 601 300 601C250 601 200 601 150 601C100 601 50 601 25 601L0 601Z" fill="#b6d6a8"></path><path d="M0 557L25 556.3C50 555.7 100 554.3 150 555.3C200 556.3 250 559.7 300 560C350 560.3 400 557.7 450 556.5C500 555.3 550 555.7 600 554.8C650 554 700 552 750 553C800 554 850 558 875 560L900 562L900 601L875 601C850 601 800 601 750 601C700 601 650 601 600 601C550 601 500 601 450 601C400 601 350 601 300 601C250 601 200 601 150 601C100 601 50 601 25 601L0 601Z" fill="#e0f8d5"></path></svg>