<svg id="visual" viewBox="0 0 900 600" width="900" height="600" xmlns="http://www.w3.org/2000/svg" xmlns:xlink="http://www.w3.org/1999/xlink" version="1.1"><g stroke-width="1" stroke-linejoin="bevel"><path d="M400 321L410 393L478 372Z" fill="#124906" stroke="#124906"></path><path d="M478 372L507 278L400 321Z" fill="#161e0e" stroke="#161e0e"></path><path d="M336 238L308 298L400 321Z" fill="#161e0e" stroke="#161e0e"></path><path d="M400 321L267 382L410 393Z" fill="#18330c" stroke="#18330c"></path><path d="M497 495L568 410L478 372Z" fill="#13180e" stroke="#13180e"></path><path d="M478 372L568 410L507 278Z" fill="#0f100e" stroke="#0f100e"></path><path d="M433 171L336 238L400 321Z" fill="#17250d" stroke="#17250d"></path><path d="M406 529L497 495L410 393Z" fill="#13180e" stroke="#13180e"></path><path d="M410 393L497 495L478 372Z" fill="#13180e" stroke="#13180e"></path><path d="M562 222L513 203L507 278Z" fill="#173a0b" stroke="#173a0b"></path><path d="M507 278L433 171L400 321Z" fill="#161e0e" stroke="#161e0e"></path><path d="M190 282L267 382L308 298Z" fill="#0f100e" stroke="#0f100e"></path><path d="M308 298L267 382L400 321Z" fill="#13180e" stroke="#13180e"></path><path d="M261 492L406 529L410 393Z" fill="#0f100e" stroke="#0f100e"></path><path d="M513 203L433 171L507 278Z" fill="#13180e" stroke="#13180e"></path><path d="M624 273L562 222L507 278Z" fill="#0b5003" stroke="#0b5003"></path><path d="M510 81L408 125L433 171Z" fill="#124906" stroke="#124906"></path><path d="M568 410L624 273L507 278Z" fill="#17250d" stroke="#17250d"></path><path d="M267 382L261 492L410 393Z" fill="#182c0d" stroke="#182c0d"></path><path d="M510 81L433 171L513 203Z" fill="#182c0d" stroke="#182c0d"></path><path d="M433 171L408 125L336 238Z" fill="#182c0d" stroke="#182c0d"></path><path d="M406 529L484 600L497 495Z" fill="#13180e" stroke="#13180e"></path><path d="M288 600L405 600L406 529Z" fill="#154109" stroke="#154109"></path><path d="M405 600L484 600L406 529Z" fill="#173a0b" stroke="#173a0b"></path><path d="M497 495L628 532L568 410Z" fill="#13180e" stroke="#13180e"></path><path d="M193 237L308 298L336 238Z" fill="#124906" stroke="#124906"></path><path d="M193 237L190 282L308 298Z" fill="#0f100e" stroke="#0f100e"></path><path d="M267 382L206 466L261 492Z" fill="#154109" stroke="#154109"></path><path d="M167 403L206 466L267 382Z" fill="#182c0d" stroke="#182c0d"></path><path d="M261 492L288 600L406 529Z" fill="#18330c" stroke="#18330c"></path><path d="M719 418L688 304L568 410Z" fill="#17250d" stroke="#17250d"></path><path d="M568 410L688 304L624 273Z" fill="#154109" stroke="#154109"></path><path d="M624 273L681 238L562 222Z" fill="#161e0e" stroke="#161e0e"></path><path d="M484 600L628 532L497 495Z" fill="#0f100e" stroke="#0f100e"></path><path d="M336 65L193 237L336 238Z" fill="#154109" stroke="#154109"></path><path d="M688 304L681 238L624 273Z" fill="#18330c" stroke="#18330c"></path><path d="M577 61L510 81L513 203Z" fill="#173a0b" stroke="#173a0b"></path><path d="M190 282L167 403L267 382Z" fill="#173a0b" stroke="#173a0b"></path><path d="M122 320L167 403L190 282Z" fill="#18330c" stroke="#18330c"></path><path d="M577 61L513 203L562 222Z" fill="#005800" stroke="#005800"></path><path d="M215 600L261 492L206 466Z" fill="#161e0e" stroke="#161e0e"></path><path d="M215 600L288 600L261 492Z" fill="#18330c" stroke="#18330c"></path><path d="M628 532L719 418L568 410Z" fill="#17250d" stroke="#17250d"></path><path d="M784 191L693 135L681 238Z" fill="#154109" stroke="#154109"></path><path d="M435 0L336 65L408 125Z" fill="#13180e" stroke="#13180e"></path><path d="M408 125L336 65L336 238Z" fill="#005800" stroke="#005800"></path><path d="M71 222L122 320L193 237Z" fill="#13180e" stroke="#13180e"></path><path d="M193 237L122 320L190 282Z" fill="#005800" stroke="#005800"></path><path d="M484 600L630 600L628 532Z" fill="#005800" stroke="#005800"></path><path d="M628 532L701 535L719 418Z" fill="#13180e" stroke="#13180e"></path><path d="M89 401L137 473L167 403Z" fill="#0f100e" stroke="#0f100e"></path><path d="M167 403L137 473L206 466Z" fill="#0b5003" stroke="#0b5003"></path><path d="M630 600L701 535L628 532Z" fill="#13180e" stroke="#13180e"></path><path d="M693 135L577 61L562 222Z" fill="#0b5003" stroke="#0b5003"></path><path d="M510 81L435 0L408 125Z" fill="#154109" stroke="#154109"></path><path d="M137 473L215 600L206 466Z" fill="#13180e" stroke="#13180e"></path><path d="M792 299L681 238L688 304Z" fill="#124906" stroke="#124906"></path><path d="M681 238L693 135L562 222Z" fill="#13180e" stroke="#13180e"></path><path d="M122 320L89 401L167 403Z" fill="#124906" stroke="#124906"></path><path d="M137 473L123 600L215 600Z" fill="#182c0d" stroke="#182c0d"></path><path d="M532 0L435 0L510 81Z" fill="#124906" stroke="#124906"></path><path d="M805 400L792 299L719 418Z" fill="#173a0b" stroke="#173a0b"></path><path d="M719 418L792 299L688 304Z" fill="#0f100e" stroke="#0f100e"></path><path d="M609 0L532 0L577 61Z" fill="#182c0d" stroke="#182c0d"></path><path d="M577 61L532 0L510 81Z" fill="#182c0d" stroke="#182c0d"></path><path d="M435 0L319 0L336 65Z" fill="#17250d" stroke="#17250d"></path><path d="M336 65L181 73L193 237Z" fill="#17250d" stroke="#17250d"></path><path d="M630 600L713 600L701 535Z" fill="#173a0b" stroke="#173a0b"></path><path d="M805 507L805 400L719 418Z" fill="#124906" stroke="#124906"></path><path d="M805 507L719 418L701 535Z" fill="#161e0e" stroke="#161e0e"></path><path d="M215 0L181 73L336 65Z" fill="#0b5003" stroke="#0b5003"></path><path d="M0 284L0 394L89 401Z" fill="#13180e" stroke="#13180e"></path><path d="M792 299L784 191L681 238Z" fill="#173a0b" stroke="#173a0b"></path><path d="M673 0L609 0L577 61Z" fill="#0f100e" stroke="#0f100e"></path><path d="M900 200L784 191L792 299Z" fill="#0f100e" stroke="#0f100e"></path><path d="M181 73L71 222L193 237Z" fill="#161e0e" stroke="#161e0e"></path><path d="M673 0L577 61L693 135Z" fill="#0f100e" stroke="#0f100e"></path><path d="M0 497L123 600L137 473Z" fill="#173a0b" stroke="#173a0b"></path><path d="M713 600L805 507L701 535Z" fill="#182c0d" stroke="#182c0d"></path><path d="M319 0L215 0L336 65Z" fill="#0b5003" stroke="#0b5003"></path><path d="M181 73L105 66L71 222Z" fill="#005800" stroke="#005800"></path><path d="M781 0L673 0L693 135Z" fill="#13180e" stroke="#13180e"></path><path d="M0 284L89 401L122 320Z" fill="#173a0b" stroke="#173a0b"></path><path d="M89 401L0 497L137 473Z" fill="#154109" stroke="#154109"></path><path d="M215 0L105 66L181 73Z" fill="#18330c" stroke="#18330c"></path><path d="M71 222L0 284L122 320Z" fill="#18330c" stroke="#18330c"></path><path d="M0 233L0 284L71 222Z" fill="#0f100e" stroke="#0f100e"></path><path d="M0 135L0 233L71 222Z" fill="#182c0d" stroke="#182c0d"></path><path d="M713 600L818 600L805 507Z" fill="#0b5003" stroke="#0b5003"></path><path d="M900 411L900 317L805 400Z" fill="#124906" stroke="#124906"></path><path d="M0 394L0 497L89 401Z" fill="#161e0e" stroke="#161e0e"></path><path d="M900 411L805 400L900 491Z" fill="#124906" stroke="#124906"></path><path d="M805 400L900 317L792 299Z" fill="#0b5003" stroke="#0b5003"></path><path d="M784 191L821 66L693 135Z" fill="#005800" stroke="#005800"></path><path d="M900 491L805 400L805 507Z" fill="#0f100e" stroke="#0f100e"></path><path d="M900 110L821 66L784 191Z" fill="#18330c" stroke="#18330c"></path><path d="M900 600L900 491L805 507Z" fill="#17250d" stroke="#17250d"></path><path d="M105 66L0 135L71 222Z" fill="#124906" stroke="#124906"></path><path d="M900 317L900 200L792 299Z" fill="#124906" stroke="#124906"></path><path d="M821 66L781 0L693 135Z" fill="#161e0e" stroke="#161e0e"></path><path d="M0 497L0 600L123 600Z" fill="#0b5003" stroke="#0b5003"></path><path d="M215 0L79 0L105 66Z" fill="#13180e" stroke="#13180e"></path><path d="M105 66L0 0L0 135Z" fill="#17250d" stroke="#17250d"></path><path d="M900 200L900 110L784 191Z" fill="#0b5003" stroke="#0b5003"></path><path d="M821 66L900 0L781 0Z" fill="#173a0b" stroke="#173a0b"></path><path d="M818 600L900 600L805 507Z" fill="#13180e" stroke="#13180e"></path><path d="M79 0L0 0L105 66Z" fill="#124906" stroke="#124906"></path><path d="M900 110L900 0L821 66Z" fill="#161e0e" stroke="#161e0e"></path></g></svg>