<svg id="visual" viewBox="0 0 900 600" width="900" height="600" xmlns="http://www.w3.org/2000/svg" xmlns:xlink="http://www.w3.org/1999/xlink" version="1.1"><g stroke-width="1" stroke-linejoin="bevel"><path d="M504 302L581 323L535 222Z" fill="#707a69" stroke="#707a69"></path><path d="M581 323L615 177L535 222Z" fill="#474d43" stroke="#474d43"></path><path d="M520 411L587 400L581 323Z" fill="#85927d" stroke="#85927d"></path><path d="M581 323L682 222L615 177Z" fill="#9baa92" stroke="#9baa92"></path><path d="M704 305L682 222L581 323Z" fill="#b2c4a8" stroke="#b2c4a8"></path><path d="M504 302L520 411L581 323Z" fill="#85927d" stroke="#85927d"></path><path d="M524 78L431 196L535 222Z" fill="#343731" stroke="#343731"></path><path d="M535 222L431 196L504 302Z" fill="#343731" stroke="#343731"></path><path d="M504 302L388 402L520 411Z" fill="#c9debe" stroke="#c9debe"></path><path d="M587 400L704 305L581 323Z" fill="#9baa92" stroke="#9baa92"></path><path d="M431 196L387 267L504 302Z" fill="#b2c4a8" stroke="#b2c4a8"></path><path d="M660 466L673 429L587 400Z" fill="#b2c4a8" stroke="#b2c4a8"></path><path d="M587 400L673 429L704 305Z" fill="#e0f8d5" stroke="#e0f8d5"></path><path d="M598 72L524 78L615 177Z" fill="#c9debe" stroke="#c9debe"></path><path d="M615 177L524 78L535 222Z" fill="#707a69" stroke="#707a69"></path><path d="M520 411L585 479L587 400Z" fill="#c9debe" stroke="#c9debe"></path><path d="M719 123L598 72L615 177Z" fill="#9baa92" stroke="#9baa92"></path><path d="M387 267L388 402L504 302Z" fill="#5b6355" stroke="#5b6355"></path><path d="M520 411L518 539L585 479Z" fill="#474d43" stroke="#474d43"></path><path d="M524 78L427 97L431 196Z" fill="#c9debe" stroke="#c9debe"></path><path d="M431 196L311 227L387 267Z" fill="#5b6355" stroke="#5b6355"></path><path d="M585 479L660 466L587 400Z" fill="#707a69" stroke="#707a69"></path><path d="M673 429L769 331L704 305Z" fill="#e0f8d5" stroke="#e0f8d5"></path><path d="M704 305L786 197L682 222Z" fill="#0f100e" stroke="#0f100e"></path><path d="M682 222L719 123L615 177Z" fill="#343731" stroke="#343731"></path><path d="M768 433L769 331L673 429Z" fill="#0f100e" stroke="#0f100e"></path><path d="M786 197L719 123L682 222Z" fill="#9baa92" stroke="#9baa92"></path><path d="M769 331L786 197L704 305Z" fill="#707a69" stroke="#707a69"></path><path d="M322 100L311 227L431 196Z" fill="#85927d" stroke="#85927d"></path><path d="M387 267L283 388L388 402Z" fill="#85927d" stroke="#85927d"></path><path d="M406 506L518 539L520 411Z" fill="#5b6355" stroke="#5b6355"></path><path d="M585 479L604 600L660 466Z" fill="#9baa92" stroke="#9baa92"></path><path d="M830 494L768 433L736 600Z" fill="#e0f8d5" stroke="#e0f8d5"></path><path d="M660 466L768 433L673 429Z" fill="#0f100e" stroke="#0f100e"></path><path d="M900 162L835 136L786 197Z" fill="#0f100e" stroke="#0f100e"></path><path d="M388 402L406 506L520 411Z" fill="#b2c4a8" stroke="#b2c4a8"></path><path d="M315 510L406 506L388 402Z" fill="#474d43" stroke="#474d43"></path><path d="M578 0L524 78L598 72Z" fill="#5b6355" stroke="#5b6355"></path><path d="M578 0L538 0L524 78Z" fill="#5b6355" stroke="#5b6355"></path><path d="M524 78L538 0L427 97Z" fill="#212420" stroke="#212420"></path><path d="M672 0L578 0L598 72Z" fill="#212420" stroke="#212420"></path><path d="M169 220L265 270L311 227Z" fill="#474d43" stroke="#474d43"></path><path d="M311 227L265 270L387 267Z" fill="#0f100e" stroke="#0f100e"></path><path d="M427 97L322 100L431 196Z" fill="#9baa92" stroke="#9baa92"></path><path d="M361 0L322 100L427 97Z" fill="#85927d" stroke="#85927d"></path><path d="M265 270L283 388L387 267Z" fill="#0f100e" stroke="#0f100e"></path><path d="M831 0L672 0L719 123Z" fill="#c9debe" stroke="#c9debe"></path><path d="M719 123L672 0L598 72Z" fill="#e0f8d5" stroke="#e0f8d5"></path><path d="M900 286L786 197L769 331Z" fill="#9baa92" stroke="#9baa92"></path><path d="M786 197L835 136L719 123Z" fill="#85927d" stroke="#85927d"></path><path d="M482 600L604 600L518 539Z" fill="#343731" stroke="#343731"></path><path d="M518 539L604 600L585 479Z" fill="#474d43" stroke="#474d43"></path><path d="M375 600L482 600L406 506Z" fill="#212420" stroke="#212420"></path><path d="M406 506L482 600L518 539Z" fill="#707a69" stroke="#707a69"></path><path d="M283 388L315 510L388 402Z" fill="#c9debe" stroke="#c9debe"></path><path d="M538 0L361 0L427 97Z" fill="#9baa92" stroke="#9baa92"></path><path d="M900 415L900 286L769 331Z" fill="#343731" stroke="#343731"></path><path d="M736 600L768 433L660 466Z" fill="#474d43" stroke="#474d43"></path><path d="M768 433L900 415L769 331Z" fill="#212420" stroke="#212420"></path><path d="M900 286L900 162L786 197Z" fill="#474d43" stroke="#474d43"></path><path d="M835 136L831 0L719 123Z" fill="#707a69" stroke="#707a69"></path><path d="M315 510L375 600L406 506Z" fill="#85927d" stroke="#85927d"></path><path d="M604 600L736 600L660 466Z" fill="#5b6355" stroke="#5b6355"></path><path d="M830 494L900 415L768 433Z" fill="#e0f8d5" stroke="#e0f8d5"></path><path d="M361 0L292 0L322 100Z" fill="#9baa92" stroke="#9baa92"></path><path d="M165 131L169 220L311 227Z" fill="#474d43" stroke="#474d43"></path><path d="M900 162L900 112L835 136Z" fill="#212420" stroke="#212420"></path><path d="M165 131L311 227L322 100Z" fill="#e0f8d5" stroke="#e0f8d5"></path><path d="M162 283L192 422L283 388Z" fill="#b2c4a8" stroke="#b2c4a8"></path><path d="M283 388L192 422L315 510Z" fill="#212420" stroke="#212420"></path><path d="M162 283L283 388L265 270Z" fill="#e0f8d5" stroke="#e0f8d5"></path><path d="M315 510L301 600L375 600Z" fill="#474d43" stroke="#474d43"></path><path d="M169 220L162 283L265 270Z" fill="#c9debe" stroke="#c9debe"></path><path d="M900 112L831 0L835 136Z" fill="#212420" stroke="#212420"></path><path d="M736 600L788 600L830 494Z" fill="#0f100e" stroke="#0f100e"></path><path d="M830 494L900 529L900 415Z" fill="#9baa92" stroke="#9baa92"></path><path d="M229 532L301 600L315 510Z" fill="#c9debe" stroke="#c9debe"></path><path d="M192 422L229 532L315 510Z" fill="#343731" stroke="#343731"></path><path d="M236 0L165 131L322 100Z" fill="#c9debe" stroke="#c9debe"></path><path d="M80 288L112 370L162 283Z" fill="#c9debe" stroke="#c9debe"></path><path d="M292 0L236 0L322 100Z" fill="#85927d" stroke="#85927d"></path><path d="M788 600L900 529L830 494Z" fill="#343731" stroke="#343731"></path><path d="M900 112L900 0L831 0Z" fill="#9baa92" stroke="#9baa92"></path><path d="M162 283L112 370L192 422Z" fill="#707a69" stroke="#707a69"></path><path d="M192 422L90 505L229 532Z" fill="#9baa92" stroke="#9baa92"></path><path d="M80 288L162 283L76 230Z" fill="#707a69" stroke="#707a69"></path><path d="M229 532L213 600L301 600Z" fill="#343731" stroke="#343731"></path><path d="M90 505L213 600L229 532Z" fill="#343731" stroke="#343731"></path><path d="M76 230L162 283L169 220Z" fill="#212420" stroke="#212420"></path><path d="M788 600L900 600L900 529Z" fill="#5b6355" stroke="#5b6355"></path><path d="M102 101L76 230L165 131Z" fill="#e0f8d5" stroke="#e0f8d5"></path><path d="M165 131L76 230L169 220Z" fill="#85927d" stroke="#85927d"></path><path d="M236 0L102 101L165 131Z" fill="#e0f8d5" stroke="#e0f8d5"></path><path d="M0 323L112 370L80 288Z" fill="#0f100e" stroke="#0f100e"></path><path d="M0 413L90 505L112 370Z" fill="#474d43" stroke="#474d43"></path><path d="M112 370L90 505L192 422Z" fill="#e0f8d5" stroke="#e0f8d5"></path><path d="M0 193L0 323L76 230Z" fill="#343731" stroke="#343731"></path><path d="M236 0L89 0L102 101Z" fill="#5b6355" stroke="#5b6355"></path><path d="M76 230L0 323L80 288Z" fill="#343731" stroke="#343731"></path><path d="M0 193L76 230L102 101Z" fill="#5b6355" stroke="#5b6355"></path><path d="M0 104L0 193L102 101Z" fill="#707a69" stroke="#707a69"></path><path d="M0 323L0 413L112 370Z" fill="#5b6355" stroke="#5b6355"></path><path d="M89 0L0 104L102 101Z" fill="#e0f8d5" stroke="#e0f8d5"></path><path d="M0 413L0 463L90 505Z" fill="#343731" stroke="#343731"></path><path d="M90 505L64 600L213 600Z" fill="#85927d" stroke="#85927d"></path><path d="M0 600L64 600L90 505Z" fill="#474d43" stroke="#474d43"></path><path d="M89 0L0 0L0 104Z" fill="#343731" stroke="#343731"></path><path d="M0 463L0 600L90 505Z" fill="#85927d" stroke="#85927d"></path></g></svg>