<svg width="512" height="246" viewBox="0 0 512 246" fill="none" xmlns="http://www.w3.org/2000/svg">
<g filter="url(#filter0_d_51_11)">
<path d="M294.535 5.5H19.1338L5.50009 19.1337L5.5 212.733L19.1338 226.366H190.919L203.871 233.183L216.823 240H492.224L505.858 226.366L505.858 32.7674L492.224 19.1337H320.439L294.535 5.5Z" stroke="#007900"/>
<path d="M279 8.50004L293.5 16.1338M257 8.50004L271.5 16.1338M268 8.5L282.5 16.1337M246 8.5L260.5 16.1337" stroke="#007900" stroke-width="2"/>
<path d="M479.272 5.5L487.452 13.6802H322.484L306.805 5.5H479.272Z" fill="url(#paint0_linear_51_11)" stroke="#007900"/>
<path d="M32.7674 240L24.5872 231.82H189.555L205.234 240H32.7674Z" fill="url(#paint1_linear_51_11)" stroke="#007900"/>
</g>
<path d="M23.8362 14.34C23.5302 14.34 23.1162 14.622 22.7262 14.994L23.0442 15.432C23.3382 15.09 23.6262 14.778 23.8302 14.778C23.9622 14.778 24.1542 14.946 24.4002 15.084C24.8142 15.3 25.3302 15.36 26.0382 15.36C26.6442 15.36 27.6702 15.33 28.1442 15.3C28.1562 15.156 28.2282 14.922 28.2882 14.79C27.6762 14.862 26.7342 14.904 26.0502 14.904C25.4022 14.904 24.8742 14.874 24.4962 14.664C24.1722 14.49 24.0282 14.34 23.8362 14.34ZM22.8762 10.458C23.1942 10.746 23.5662 11.142 23.7282 11.412L24.1062 11.148C23.9322 10.878 23.5482 10.488 23.2302 10.224L22.8762 10.458ZM24.0222 12.222H22.8102V12.642H23.5842V14.568H24.0222V12.222ZM24.2862 10.902V11.328H28.1862V10.902H24.2862ZM27.0462 10.986C26.6442 12.588 25.7502 13.554 24.2502 14.07C24.3402 14.166 24.4782 14.37 24.5262 14.466C26.0742 13.854 27.0222 12.816 27.4962 11.076L27.0462 10.986ZM25.6542 10.062C25.8222 10.338 26.0142 10.716 26.0862 10.95L26.5362 10.788C26.4522 10.56 26.2542 10.194 26.0802 9.93L25.6542 10.062ZM24.4662 11.934C25.5582 12.684 26.9502 13.776 27.6102 14.448L27.9642 14.118C27.2562 13.446 25.8462 12.39 24.7842 11.658L24.4662 11.934ZM29.1342 12.606V13.014H34.4442V12.606H29.1342ZM31.8042 13.68V14.076H34.0482V13.68H31.8042ZM31.6062 12.786V15.06H32.0622V12.786H31.6062ZM30.4302 13.764L30.0582 13.902C30.5262 15.114 31.3422 15.366 32.7462 15.366H34.3962C34.4202 15.234 34.4922 15.036 34.5582 14.934C34.2462 14.94 32.9922 14.94 32.7642 14.94C31.5882 14.934 30.7962 14.748 30.4302 13.764ZM30.1722 13.206C30.0162 14.088 29.6322 14.76 28.9962 15.174C29.0982 15.246 29.2722 15.408 29.3382 15.492C29.9982 15.012 30.4302 14.268 30.6222 13.272L30.1722 13.206ZM30.2022 11.364H33.3282V11.856H30.2022V11.364ZM30.2022 10.554H33.3282V11.04H30.2022V10.554ZM29.7642 10.212V12.198H33.7842V10.212H29.7642ZM35.3202 12.414V12.906H40.8102V12.414H35.3202ZM44.3022 10.446C44.8542 11.232 45.9582 12.18 46.9362 12.744C47.0202 12.612 47.1282 12.456 47.2422 12.342C46.2582 11.838 45.1602 10.908 44.5062 9.978H44.0382C43.5642 10.788 42.5202 11.802 41.4282 12.42C41.5302 12.516 41.6562 12.678 41.7222 12.78C42.7902 12.156 43.8042 11.202 44.3022 10.446ZM44.0622 11.946V15.486H44.5362V11.946H44.0622ZM50.4582 11.088V11.514H53.1462V11.088H50.4582ZM48.7842 14.67V15.096H52.3782V14.67H48.7842ZM50.2662 9.966V12.924H50.7282V9.966H50.2662ZM48.5202 12.708V15.474H48.9642V13.134H52.2042V15.45H52.6602V12.708H48.5202ZM57.4002 10.032V11.4H57.8502V10.032H57.4002ZM55.8342 11.142V11.574H59.5002V11.142H55.8342ZM56.3322 12.042C56.5482 12.846 56.7342 13.89 56.7762 14.49L57.2202 14.394C57.1722 13.8 56.9622 12.774 56.7342 11.976L56.3322 12.042ZM58.5222 11.922C58.3602 12.816 58.0302 14.088 57.7482 14.844L58.1502 14.94C58.4322 14.196 58.7802 12.966 59.0022 12.006L58.5222 11.922ZM55.6842 14.772V15.204H59.6502V14.772H55.6842ZM55.5222 9.978C55.1742 10.884 54.5862 11.778 53.9802 12.342C54.0642 12.45 54.1902 12.69 54.2382 12.792C54.8982 12.132 55.5402 11.124 55.9482 10.116L55.5222 9.978ZM54.8982 11.526V15.468H55.3302V11.106L55.3242 11.1L54.8982 11.526ZM62.1582 12.408V12.822H65.7942V12.408H62.1582ZM61.6962 11.706C61.3842 12.36 60.8862 13.008 60.3822 13.44C60.4782 13.524 60.6342 13.716 60.6942 13.806C61.2222 13.326 61.7682 12.582 62.1222 11.844L61.6962 11.706ZM64.5342 11.754V14.904C64.5342 15.006 64.5042 15.036 64.3842 15.036C64.2702 15.042 63.8742 15.048 63.4422 15.036C63.5082 15.156 63.5802 15.348 63.5982 15.468C64.1442 15.468 64.4982 15.462 64.7022 15.396C64.9062 15.324 64.9722 15.192 64.9722 14.91V11.754H64.5342ZM61.1382 10.536V10.92H62.9802V10.536H61.1382ZM63.4422 10.536V10.92H65.7402V10.536H63.4422ZM61.2282 9.942C61.0422 10.548 60.7242 11.142 60.3462 11.532C60.4542 11.592 60.6462 11.718 60.7302 11.784C61.0902 11.358 61.4442 10.704 61.6602 10.05L61.2282 9.942ZM63.5862 9.942C63.4062 10.548 63.0822 11.118 62.6802 11.484C62.7882 11.55 62.9742 11.676 63.0582 11.742C63.4482 11.334 63.8082 10.71 64.0182 10.044L63.5862 9.942ZM61.5582 10.842C61.7022 11.124 61.8822 11.514 61.9722 11.736L62.3742 11.592C62.2782 11.376 62.0862 10.998 61.9422 10.728L61.5582 10.842ZM64.0062 10.842C64.1802 11.094 64.4022 11.442 64.5042 11.652L64.9002 11.49C64.7862 11.28 64.5582 10.944 64.3782 10.698L64.0062 10.842ZM62.5062 13.344C62.7702 13.728 63.1062 14.244 63.2622 14.544L63.6402 14.316C63.4722 14.022 63.1302 13.524 62.8662 13.152L62.5062 13.344ZM61.2762 12.696V15.48H61.7082V12.276V12.27L61.2762 12.696ZM70.7502 11.208C70.0782 13.266 68.7762 14.442 66.6342 15.054C66.7302 15.162 66.8742 15.378 66.9222 15.492C69.1062 14.784 70.4682 13.548 71.2242 11.346L70.7502 11.208ZM68.0262 11.238L67.5822 11.376C68.3202 13.476 69.6402 14.904 71.8662 15.486C71.9382 15.354 72.0822 15.15 72.1902 15.042C70.0242 14.538 68.6742 13.158 68.0262 11.238ZM66.7062 10.98V11.424H72.1302V10.98H66.7062ZM69.1662 9.96V11.25H69.6282V9.96H69.1662ZM73.0602 11.226V11.682H78.2982V11.226H73.0602ZM74.2602 13.902V14.358H77.0562V13.902H74.2602ZM75.4302 9.966V15.48H75.9042V9.966H75.4302ZM75.2922 11.376C74.8122 12.528 73.8582 13.644 72.8562 14.166C72.9582 14.256 73.1082 14.424 73.1802 14.538C74.2182 13.932 75.1602 12.786 75.6942 11.514L75.2922 11.376ZM76.0542 11.394L75.6522 11.532C76.1802 12.792 77.1042 13.938 78.1662 14.526C78.2382 14.4 78.3942 14.22 78.5082 14.124C77.4702 13.626 76.5282 12.534 76.0542 11.394ZM83.5121 9.99C83.3141 10.872 82.9661 11.736 82.5221 12.294C82.6241 12.36 82.8041 12.504 82.8821 12.582C83.3441 11.97 83.7221 11.046 83.9561 10.086L83.5121 9.99ZM83.4101 12.534C83.2421 13.254 82.9541 13.968 82.5821 14.43C82.6901 14.484 82.8821 14.604 82.9721 14.676C83.3381 14.172 83.6621 13.41 83.8481 12.624L83.4101 12.534ZM83.4581 11.118L83.2841 11.538H86.1581V11.118H83.4581ZM84.3881 11.292V14.934C84.3881 15.012 84.3641 15.036 84.2861 15.036C84.2021 15.036 83.9441 15.042 83.6621 15.03C83.7281 15.162 83.7941 15.36 83.8241 15.486C84.1961 15.486 84.4541 15.474 84.6161 15.396C84.7841 15.324 84.8381 15.192 84.8381 14.934V11.292H84.3881ZM85.2701 12.624C85.6001 13.254 85.9001 14.1 85.9961 14.652L86.4221 14.508C86.3201 13.95 86.0201 13.122 85.6721 12.492L85.2701 12.624ZM86.0261 11.118V11.184C85.9661 11.58 85.8881 12.084 85.8221 12.384L86.2121 12.456C86.2901 12.132 86.3921 11.616 86.4761 11.172L86.1641 11.106L86.0861 11.118H86.0261ZM82.3061 9.984C81.9701 10.896 81.4061 11.796 80.8121 12.378C80.8961 12.48 81.0221 12.72 81.0701 12.822C81.7181 12.15 82.3361 11.136 82.7321 10.116L82.3061 9.984ZM81.6821 11.532V15.474H82.1141V11.112L82.1021 11.106L81.6821 11.532ZM89.6741 10.272V10.692H92.3081V10.272H89.6741ZM89.4701 12.378V12.81H92.7701V12.378H89.4701ZM90.8861 11.58V14.91C90.8861 15 90.8561 15.03 90.7541 15.036C90.6461 15.042 90.3101 15.042 89.9321 15.03C89.9921 15.15 90.0701 15.348 90.0941 15.468C90.5741 15.474 90.8861 15.462 91.0841 15.39C91.2701 15.318 91.3361 15.186 91.3361 14.916V11.58H90.8861ZM92.1461 10.272V10.374C91.9061 10.764 91.4081 11.328 90.9761 11.652C91.0541 11.712 91.1801 11.832 91.2461 11.916C91.7261 11.556 92.2841 10.974 92.6441 10.464L92.3501 10.248L92.2541 10.272H92.1461ZM87.2501 11.202V11.622H89.2241V11.202H87.2501ZM88.1561 9.966C87.9521 11.106 87.5921 12.714 87.3281 13.632L87.7061 13.83C87.9761 12.834 88.3541 11.214 88.5821 10.014L88.1561 9.966ZM87.5501 13.44C88.2221 13.83 88.9961 14.442 89.3561 14.892L89.6261 14.526C89.2661 14.082 88.4741 13.506 87.8021 13.128L87.5501 13.44ZM89.0741 11.202V11.292C88.9241 13.332 88.3001 14.604 87.2981 15.132C87.3941 15.222 87.5201 15.384 87.5801 15.492C88.6841 14.832 89.3381 13.56 89.5001 11.238L89.2301 11.184L89.1461 11.202H89.0741ZM93.9281 10.362C94.2521 10.656 94.6481 11.082 94.8401 11.346L95.1581 11.022C94.9661 10.77 94.5521 10.368 94.2281 10.092L93.9281 10.362ZM93.5261 11.844V12.288H94.6601V11.844H93.5261ZM94.3121 15.252C94.3961 15.132 94.5701 15 95.6981 14.172C95.6441 14.076 95.5781 13.896 95.5421 13.77L94.3481 14.61L94.2221 14.802L94.3121 15.252ZM94.3121 15.252C94.3121 15.072 94.8521 14.7 94.8521 14.7V11.844H94.4021V14.286C94.4021 14.556 94.1741 14.76 94.0541 14.838C94.1441 14.934 94.2701 15.138 94.3121 15.252ZM95.8181 10.14C96.0401 10.458 96.2741 10.896 96.3521 11.178L96.7661 10.998C96.6761 10.716 96.4301 10.296 96.1961 9.978L95.8181 10.14ZM97.9061 9.966C97.7741 10.356 97.5341 10.908 97.3421 11.25L97.7441 11.394C97.9421 11.058 98.1761 10.56 98.3741 10.116L97.9061 9.966ZM95.9981 11.574H98.0381V12.666H95.9981V11.574ZM95.5661 11.172V13.074H98.4941V11.172H95.5661ZM96.3281 12.972C96.2621 14.004 96.0821 14.748 95.0381 15.144C95.1401 15.222 95.2661 15.384 95.3201 15.486C96.4601 15.018 96.7001 14.172 96.7841 12.972H96.3281ZM97.3181 12.936V14.802C97.3181 15.264 97.4261 15.402 97.8701 15.402C97.9601 15.402 98.3801 15.402 98.4701 15.402C98.8541 15.402 98.9681 15.198 99.0101 14.418C98.8841 14.388 98.7041 14.316 98.6081 14.238C98.5961 14.886 98.5661 14.976 98.4221 14.976C98.3381 14.976 98.0021 14.976 97.9361 14.976C97.7861 14.976 97.7621 14.952 97.7621 14.796V12.936H97.3181ZM100.108 11.034V13.89H100.558V11.478H104.476V13.86H104.944V11.034H100.108ZM100.348 13.074V13.512H104.746V13.074H100.348ZM102.28 9.96V15.474H102.748V9.96H102.28ZM110.146 11.208C109.474 13.266 108.172 14.442 106.03 15.054C106.126 15.162 106.27 15.378 106.318 15.492C108.502 14.784 109.864 13.548 110.62 11.346L110.146 11.208ZM107.422 11.238L106.978 11.376C107.716 13.476 109.036 14.904 111.262 15.486C111.334 15.354 111.478 15.15 111.586 15.042C109.42 14.538 108.07 13.158 107.422 11.238ZM106.102 10.98V11.424H111.526V10.98H106.102ZM108.562 9.96V11.25H109.024V9.96H108.562ZM112.858 10.926V11.328H114.262V14.442H112.858V14.85H114.682V10.926H112.858ZM112.588 10.926V15.33H113.008V10.926H112.588ZM112.828 12.594V12.996H114.484V12.594H112.828ZM113.506 9.948C113.458 10.26 113.344 10.716 113.242 11.004L113.602 11.094C113.722 10.824 113.872 10.41 113.992 10.038L113.506 9.948ZM115.534 10.908V11.328H117.376V10.908H115.534ZM117.22 10.908V11.004C117.136 13.65 117.04 14.646 116.842 14.862C116.776 14.94 116.704 14.958 116.584 14.958C116.446 14.958 116.086 14.952 115.696 14.922C115.78 15.042 115.834 15.228 115.846 15.36C116.182 15.378 116.536 15.39 116.74 15.366C116.95 15.348 117.088 15.294 117.22 15.12C117.46 14.826 117.544 13.896 117.64 11.142C117.64 11.076 117.64 10.908 117.64 10.908H117.22ZM115.66 9.936C115.468 10.77 115.138 11.598 114.73 12.126C114.838 12.186 115.024 12.312 115.102 12.384C115.516 11.814 115.87 10.932 116.092 10.038L115.66 9.936ZM115.384 12.468C115.714 12.906 116.116 13.5 116.296 13.866L116.68 13.626C116.488 13.272 116.074 12.69 115.732 12.264L115.384 12.468ZM121.9 10.29V10.71H123.544V10.29H121.9ZM121.9 11.64V12.048H123.544V11.64H121.9ZM121.87 13.002V13.416H123.55V13.002H121.87ZM123.334 10.29V14.868C123.334 14.958 123.304 14.988 123.208 14.994C123.112 15 122.8 15 122.458 14.988C122.524 15.108 122.59 15.312 122.602 15.438C123.07 15.438 123.364 15.426 123.538 15.354C123.712 15.276 123.766 15.138 123.766 14.868V10.29H123.334ZM121.684 10.29V12.36C121.684 13.254 121.63 14.436 121.018 15.264C121.126 15.306 121.312 15.426 121.384 15.498C122.02 14.634 122.116 13.314 122.116 12.36V10.29H121.684ZM119.272 10.29V10.71H120.856V10.29H119.272ZM119.272 11.64V12.048H120.856V11.64H119.272ZM119.26 13.002V13.416H120.85V13.002H119.26ZM120.61 10.29V14.85C120.61 14.928 120.58 14.952 120.496 14.958C120.418 14.958 120.16 14.958 119.878 14.952C119.932 15.066 119.992 15.252 120.01 15.366C120.406 15.366 120.664 15.36 120.826 15.288C120.982 15.216 121.03 15.084 121.03 14.844V10.29H120.61ZM119.092 10.29V12.438C119.092 13.302 119.044 14.454 118.522 15.264C118.624 15.306 118.81 15.42 118.888 15.486C119.434 14.646 119.512 13.356 119.512 12.432V10.29H119.092ZM126.88 12.408L126.49 12.528C127.096 14.112 128.248 15.096 130.072 15.48C130.132 15.354 130.258 15.168 130.36 15.072C128.572 14.748 127.408 13.83 126.88 12.408ZM129.094 12.198V12.282C128.656 13.854 127.39 14.742 125.956 15.102C126.052 15.192 126.16 15.366 126.214 15.486C127.756 15.042 129.064 14.124 129.568 12.312L129.262 12.174L129.178 12.198H129.094ZM125.026 10.962V11.4H130.21V10.962H125.026ZM126.634 12.198L126.508 12.636H129.142V12.198H126.634ZM126.634 9.96C126.604 10.506 126.55 13.602 124.822 14.976C124.966 15.06 125.122 15.174 125.212 15.288C126.952 13.794 127.054 10.65 127.096 9.96H126.634ZM136.876 10.356C137.23 10.668 137.638 11.1 137.818 11.388L138.19 11.124C137.992 10.848 137.572 10.422 137.218 10.122L136.876 10.356ZM132.988 11.736V12.168H138.334V11.736H132.988ZM132.898 13.5L133.03 13.95C133.786 13.782 134.848 13.536 135.832 13.308L135.796 12.9C134.74 13.128 133.612 13.368 132.898 13.5ZM134.278 10.572V14.898C134.278 15.006 134.242 15.036 134.134 15.036C134.026 15.042 133.672 15.048 133.288 15.03C133.354 15.162 133.432 15.366 133.456 15.486C133.954 15.492 134.272 15.474 134.464 15.402C134.656 15.33 134.728 15.198 134.728 14.904V10.572H134.278ZM135.418 10.032C134.842 10.248 133.87 10.452 133.024 10.584C133.084 10.686 133.138 10.854 133.162 10.956C134.02 10.836 135.04 10.65 135.736 10.41L135.418 10.032ZM136.018 10.014C136.042 12.87 136.576 15.504 137.752 15.504C138.202 15.504 138.364 15.21 138.448 14.214C138.322 14.166 138.16 14.064 138.064 13.962C138.028 14.736 137.956 15.048 137.794 15.048C137.062 15.048 136.474 12.768 136.486 10.014H136.018ZM137.644 12.444C137.11 13.458 136.12 14.382 135.052 14.898C135.166 15 135.292 15.144 135.364 15.258C136.468 14.676 137.458 13.71 138.046 12.612L137.644 12.444ZM139.252 13.776V14.196H144.598V13.776H139.252ZM139.42 10.668V11.082H144.454V10.668H139.42ZM140.644 11.688V12.072H143.218V11.688H140.644ZM140.644 12.726V13.116H143.218V12.726H140.644ZM140.356 9.972V13.962H140.8V9.972H140.356ZM143.038 9.972V13.962H143.494V9.972H143.038ZM142.366 14.616C143.068 14.874 143.782 15.204 144.208 15.456L144.616 15.162C144.148 14.91 143.386 14.58 142.672 14.328L142.366 14.616ZM141.094 14.292C140.668 14.586 139.84 14.94 139.192 15.126C139.288 15.222 139.426 15.378 139.492 15.468C140.14 15.258 140.956 14.91 141.49 14.58L141.094 14.292ZM148.42 14.358C149.218 14.664 150.022 15.078 150.502 15.444L150.778 15.096C150.286 14.736 149.44 14.322 148.642 14.034L148.42 14.358ZM147.766 10.062C147.928 10.314 148.102 10.668 148.174 10.878L148.636 10.722C148.564 10.506 148.378 10.17 148.216 9.924L147.766 10.062ZM145.738 10.644V11.862H146.182V11.07H150.202V11.862H150.664V10.644H145.738ZM148.216 11.37C148.15 13.44 148.048 14.574 145.678 15.072C145.774 15.168 145.894 15.342 145.936 15.462C148.426 14.892 148.612 13.596 148.684 11.37H148.216ZM145.624 13.47V13.86H150.802V13.47H145.624ZM146.638 11.664C146.962 11.856 147.34 12.15 147.52 12.36L147.802 12.036C147.616 11.826 147.232 11.55 146.908 11.376L146.638 11.664ZM146.038 12.594C146.374 12.78 146.782 13.08 146.974 13.296L147.244 12.96C147.046 12.75 146.644 12.468 146.302 12.294L146.038 12.594ZM151.882 10.386V10.842H157.048V10.386H151.882ZM154.822 12.132C155.536 12.618 156.436 13.32 156.856 13.782L157.222 13.44C156.778 12.978 155.86 12.3 155.158 11.844L154.822 12.132ZM154.708 10.542C154.15 11.67 153.034 12.822 151.732 13.476C151.822 13.572 151.966 13.752 152.038 13.866C153.394 13.152 154.516 11.964 155.2 10.722L154.708 10.542ZM154.216 11.742V15.474H154.702V11.262L154.216 11.742ZM158.32 14.826L158.38 15.27C159.442 15.234 161.068 15.162 162.58 15.084L162.598 14.67C161.038 14.742 159.364 14.802 158.32 14.826ZM158.266 12.972V13.398H163.24V12.972H158.266ZM159.292 11.826V12.246H162.16V11.826H159.292ZM159.91 13.242C159.73 13.77 159.376 14.514 159.094 14.982L159.496 15.114C159.79 14.664 160.138 13.962 160.414 13.386L159.91 13.242ZM161.338 13.878C161.872 14.358 162.466 15.048 162.736 15.498L163.144 15.252C162.862 14.796 162.274 14.148 161.722 13.674L161.338 13.878ZM160.714 10.404C161.272 11.184 162.328 11.988 163.264 12.438C163.342 12.306 163.45 12.144 163.558 12.036C162.604 11.646 161.554 10.86 160.918 9.972H160.456C159.988 10.74 158.986 11.61 157.954 12.102C158.05 12.198 158.164 12.36 158.218 12.468C159.238 11.958 160.222 11.136 160.714 10.404ZM164.674 10.362C164.998 10.656 165.394 11.082 165.586 11.346L165.904 11.022C165.712 10.77 165.298 10.368 164.974 10.092L164.674 10.362ZM164.272 11.844V12.288H165.406V11.844H164.272ZM165.058 15.252C165.142 15.132 165.316 15 166.444 14.172C166.39 14.076 166.324 13.896 166.288 13.77L165.094 14.61L164.968 14.802L165.058 15.252ZM165.058 15.252C165.058 15.072 165.598 14.7 165.598 14.7V11.844H165.148V14.286C165.148 14.556 164.92 14.76 164.8 14.838C164.89 14.934 165.016 15.138 165.058 15.252ZM166.564 10.14C166.786 10.458 167.02 10.896 167.098 11.178L167.512 10.998C167.422 10.716 167.176 10.296 166.942 9.978L166.564 10.14ZM168.652 9.966C168.52 10.356 168.28 10.908 168.088 11.25L168.49 11.394C168.688 11.058 168.922 10.56 169.12 10.116L168.652 9.966ZM166.744 11.574H168.784V12.666H166.744V11.574ZM166.312 11.172V13.074H169.24V11.172H166.312ZM167.074 12.972C167.008 14.004 166.828 14.748 165.784 15.144C165.886 15.222 166.012 15.384 166.066 15.486C167.206 15.018 167.446 14.172 167.53 12.972H167.074ZM168.064 12.936V14.802C168.064 15.264 168.172 15.402 168.616 15.402C168.706 15.402 169.126 15.402 169.216 15.402C169.6 15.402 169.714 15.198 169.756 14.418C169.63 14.388 169.45 14.316 169.354 14.238C169.342 14.886 169.312 14.976 169.168 14.976C169.084 14.976 168.748 14.976 168.682 14.976C168.532 14.976 168.508 14.952 168.508 14.796V12.936H168.064ZM170.854 11.034V13.89H171.304V11.478H175.222V13.86H175.69V11.034H170.854ZM171.094 13.074V13.512H175.492V13.074H171.094ZM173.026 9.96V15.474H173.494V9.96H173.026ZM180.892 11.208C180.22 13.266 178.918 14.442 176.776 15.054C176.872 15.162 177.016 15.378 177.064 15.492C179.248 14.784 180.61 13.548 181.366 11.346L180.892 11.208ZM178.168 11.238L177.724 11.376C178.462 13.476 179.782 14.904 182.008 15.486C182.08 15.354 182.224 15.15 182.332 15.042C180.166 14.538 178.816 13.158 178.168 11.238ZM176.848 10.98V11.424H182.272V10.98H176.848ZM179.308 9.96V11.25H179.77V9.96H179.308ZM185.914 14.34C185.608 14.34 185.194 14.622 184.804 14.994L185.122 15.432C185.416 15.09 185.704 14.778 185.908 14.778C186.04 14.778 186.232 14.946 186.478 15.084C186.892 15.3 187.408 15.36 188.116 15.36C188.722 15.36 189.748 15.33 190.222 15.3C190.234 15.156 190.306 14.922 190.366 14.79C189.754 14.862 188.812 14.904 188.128 14.904C187.48 14.904 186.952 14.874 186.574 14.664C186.25 14.49 186.106 14.34 185.914 14.34ZM184.954 10.458C185.272 10.746 185.644 11.142 185.806 11.412L186.184 11.148C186.01 10.878 185.626 10.488 185.308 10.224L184.954 10.458ZM186.1 12.222H184.888V12.642H185.662V14.568H186.1V12.222ZM186.364 10.902V11.328H190.264V10.902H186.364ZM189.124 10.986C188.722 12.588 187.828 13.554 186.328 14.07C186.418 14.166 186.556 14.37 186.604 14.466C188.152 13.854 189.1 12.816 189.574 11.076L189.124 10.986ZM187.732 10.062C187.9 10.338 188.092 10.716 188.164 10.95L188.614 10.788C188.53 10.56 188.332 10.194 188.158 9.93L187.732 10.062ZM186.544 11.934C187.636 12.684 189.028 13.776 189.688 14.448L190.042 14.118C189.334 13.446 187.924 12.39 186.862 11.658L186.544 11.934ZM191.212 12.606V13.014H196.522V12.606H191.212ZM193.882 13.68V14.076H196.126V13.68H193.882ZM193.684 12.786V15.06H194.14V12.786H193.684ZM192.508 13.764L192.136 13.902C192.604 15.114 193.42 15.366 194.824 15.366H196.474C196.498 15.234 196.57 15.036 196.636 14.934C196.324 14.94 195.07 14.94 194.842 14.94C193.666 14.934 192.874 14.748 192.508 13.764ZM192.25 13.206C192.094 14.088 191.71 14.76 191.074 15.174C191.176 15.246 191.35 15.408 191.416 15.492C192.076 15.012 192.508 14.268 192.7 13.272L192.25 13.206ZM192.28 11.364H195.406V11.856H192.28V11.364ZM192.28 10.554H195.406V11.04H192.28V10.554ZM191.842 10.212V12.198H195.862V10.212H191.842ZM197.47 12.624V13.056H202.804V12.624H197.47ZM197.758 10.686V11.118H202.552V10.686H197.758ZM199.888 9.966V15.48H200.362V9.966H199.888ZM201.67 11.226C201.532 11.592 201.268 12.114 201.058 12.432L201.442 12.57C201.658 12.27 201.922 11.79 202.138 11.376L201.67 11.226ZM198.244 11.406C198.478 11.766 198.706 12.252 198.784 12.558L199.21 12.384C199.126 12.078 198.886 11.604 198.64 11.256L198.244 11.406ZM199.768 12.792C199.252 13.62 198.25 14.454 197.338 14.85C197.44 14.94 197.584 15.108 197.656 15.216C198.568 14.766 199.564 13.878 200.134 12.942L199.768 12.792ZM200.494 12.792L200.128 12.948C200.704 13.872 201.7 14.784 202.618 15.24C202.69 15.126 202.834 14.952 202.936 14.862C202.024 14.466 201.016 13.62 200.494 12.792ZM204.682 12.114V12.534H208.168V12.114H204.682ZM204.682 13.416V13.836H208.168V13.416H204.682ZM204.682 14.73V15.15H208.168V14.73H204.682ZM204.376 10.782V15.486H204.832V11.214H208.048V15.456H208.516V10.782H204.376ZM206.134 9.954C206.074 10.248 205.942 10.668 205.834 10.95L206.236 11.028C206.368 10.77 206.524 10.38 206.656 10.02L206.134 9.954ZM211.168 14.844V15.24H214.192V14.844H211.168ZM210.994 13.074V15.486H211.456V13.476H213.91V15.48H214.384V13.074H210.994ZM212.656 11.538C213.208 12.342 214.246 13.212 215.176 13.71C215.254 13.584 215.356 13.428 215.464 13.32C214.522 12.882 213.478 12.024 212.854 11.1H212.404C211.942 11.916 210.952 12.846 209.914 13.386C210.016 13.482 210.136 13.638 210.196 13.74C211.198 13.182 212.164 12.3 212.656 11.538ZM213.226 10.32C213.814 10.746 214.51 11.358 214.828 11.772L215.206 11.49C214.864 11.076 214.15 10.482 213.574 10.074L213.226 10.32ZM211.648 10.092C211.282 10.632 210.688 11.166 210.112 11.508C210.22 11.58 210.4 11.742 210.484 11.826C211.042 11.448 211.672 10.854 212.092 10.248L211.648 10.092ZM219.55 11.04V11.454H221.416V11.04H219.55ZM216.232 10.302V10.686H219.25V10.302H216.232ZM220.312 11.22H220.09V12.342C220.09 12.822 219.934 14.34 218.8 15.114C218.878 15.204 219.004 15.39 219.058 15.486C219.952 14.862 220.252 13.728 220.312 13.26C220.372 13.716 220.66 14.886 221.518 15.486C221.578 15.378 221.716 15.192 221.794 15.102C220.696 14.34 220.528 12.804 220.528 12.342V11.22H220.312ZM219.586 9.984C219.466 10.908 219.244 11.802 218.86 12.378C218.968 12.426 219.166 12.552 219.238 12.612C219.622 11.994 219.874 11.046 220.024 10.05L219.586 9.984ZM221.284 11.04V11.118C221.23 11.568 221.122 12.162 221.014 12.504L221.38 12.588C221.512 12.216 221.638 11.604 221.722 11.094L221.422 11.022L221.35 11.04H221.284ZM218.404 10.506V12.234C218.404 12.288 218.38 12.306 218.308 12.312C218.242 12.318 217.996 12.318 217.726 12.312C217.78 12.408 217.84 12.552 217.858 12.654C218.236 12.654 218.47 12.654 218.62 12.594C218.77 12.534 218.812 12.438 218.812 12.234V10.506H218.404ZM216.694 11.004V11.31H217.594V11.868H216.694V12.174H217.942V11.004H216.694ZM216.496 11.004V12.39H216.838V11.004H216.496ZM216.67 13.572V13.89H217.618V14.49H216.67V14.808H217.966V13.572H216.67ZM216.46 13.572V15.06H216.808V13.572H216.46ZM216.178 12.822V13.2H219.31V12.822H216.178ZM218.404 13.014V15.018C218.404 15.09 218.38 15.102 218.302 15.108C218.236 15.114 217.99 15.114 217.714 15.108C217.762 15.216 217.822 15.372 217.84 15.474C218.218 15.474 218.458 15.474 218.614 15.414C218.77 15.348 218.812 15.24 218.812 15.024V13.014H218.404ZM222.508 11.406V11.754H225.106V11.406H222.508ZM222.922 13.932V14.256H224.788V13.932H222.922ZM222.916 14.778V15.132H224.77V14.778H222.916ZM223.702 10.404V12.972H224.092V10.404H223.702ZM223.732 13.284V14.964H224.056V13.284H223.732ZM224.836 10.002C224.302 10.14 223.33 10.242 222.544 10.29C222.586 10.38 222.634 10.512 222.652 10.602C223.45 10.572 224.446 10.47 225.082 10.314L224.836 10.002ZM224.044 11.694L223.846 11.892C224.104 12.078 224.758 12.63 224.968 12.858L225.202 12.504C225.028 12.366 224.26 11.826 224.044 11.694ZM222.808 10.74C222.898 10.95 223 11.238 223.048 11.406L223.366 11.298C223.324 11.142 223.216 10.866 223.12 10.662L222.808 10.74ZM224.626 10.584C224.542 10.836 224.392 11.22 224.266 11.454L224.554 11.556C224.686 11.334 224.836 10.998 224.968 10.698L224.626 10.584ZM223.654 11.598C223.39 12.036 222.862 12.552 222.43 12.804C222.496 12.912 222.58 13.08 222.616 13.2C223.084 12.888 223.624 12.27 223.924 11.748L223.654 11.598ZM222.712 13.086V15.474H223.072V13.44H224.662V15.408H225.028V13.086H222.712ZM225.28 10.242V10.632H226.312V10.242H225.28ZM226.09 10.242V14.964C226.09 15.042 226.066 15.06 226 15.06C225.934 15.066 225.718 15.066 225.49 15.06C225.544 15.168 225.598 15.348 225.61 15.456C225.928 15.456 226.15 15.444 226.282 15.378C226.42 15.312 226.462 15.186 226.462 14.964V10.242H226.09ZM226.612 10.248V10.638H227.554V10.248H226.612ZM227.416 10.248V14.958C227.416 15.036 227.392 15.06 227.32 15.06C227.254 15.066 227.02 15.066 226.78 15.054C226.84 15.168 226.906 15.354 226.924 15.462C227.248 15.462 227.47 15.45 227.608 15.384C227.752 15.318 227.8 15.192 227.8 14.964V10.248H227.416ZM225.268 11.31C225.436 11.694 225.604 12.21 225.67 12.516L225.988 12.402C225.922 12.102 225.742 11.604 225.568 11.22L225.268 11.31ZM226.612 11.292C226.774 11.676 226.942 12.174 227.008 12.48L227.332 12.378C227.26 12.09 227.086 11.592 226.918 11.226L226.612 11.292ZM226.546 13.74L226.756 14.058C227.056 13.74 227.392 13.368 227.698 13.008L227.512 12.708C227.158 13.11 226.786 13.506 226.546 13.74ZM225.166 13.812L225.376 14.124C225.688 13.788 226.06 13.374 226.396 12.984L226.21 12.678C225.826 13.116 225.424 13.548 225.166 13.812ZM229.084 10.326C229.342 10.644 229.648 11.088 229.78 11.37L230.146 11.1C230.008 10.836 229.69 10.41 229.426 10.098L229.084 10.326ZM229.564 15.336C229.642 15.222 229.792 15.096 230.692 14.412C230.644 14.328 230.566 14.16 230.524 14.04L229.588 14.73L229.474 14.916L229.564 15.336ZM228.76 11.838V12.276H229.894V11.838H228.76ZM230.698 10.284V10.686H233.62V10.284H230.698ZM233.494 10.284V10.356C232.984 11.382 231.652 12.114 230.404 12.414C230.488 12.51 230.596 12.69 230.644 12.804C231.964 12.432 233.332 11.652 233.944 10.428L233.656 10.26L233.578 10.284H233.494ZM231.442 10.47L231.088 10.602C231.658 11.676 232.732 12.414 234.034 12.738C234.094 12.624 234.22 12.45 234.316 12.36C233.026 12.09 231.958 11.412 231.442 10.47ZM230.95 13.062V13.464H233.794V13.062H230.95ZM230.626 14.106V14.508H234.184V14.106H230.626ZM232.144 12.534V15.492H232.594V12.534H232.144ZM229.564 15.336C229.564 15.156 230.038 14.748 230.038 14.748V11.838H229.606V14.418C229.606 14.712 229.42 14.922 229.312 15.012C229.39 15.078 229.516 15.24 229.564 15.336Z" fill="#007900"/>
<defs>
<filter id="filter0_d_51_11" x="0" y="0" width="511.358" height="245.5" filterUnits="userSpaceOnUse" color-interpolation-filters="sRGB">
<feFlood flood-opacity="0" result="BackgroundImageFix"/>
<feColorMatrix in="SourceAlpha" type="matrix" values="0 0 0 0 0 0 0 0 0 0 0 0 0 0 0 0 0 0 127 0" result="hardAlpha"/>
<feOffset/>
<feGaussianBlur stdDeviation="2.5"/>
<feComposite in2="hardAlpha" operator="out"/>
<feColorMatrix type="matrix" values="0 0 0 0 0 0 0 0 0 0.47451 0 0 0 0 0 0 0 0 1 0"/>
<feBlend mode="normal" in2="BackgroundImageFix" result="effect1_dropShadow_51_11"/>
<feBlend mode="normal" in="SourceGraphic" in2="effect1_dropShadow_51_11" result="shape"/>
</filter>
<linearGradient id="paint0_linear_51_11" x1="397.129" y1="5.5" x2="397.129" y2="13.6802" gradientUnits="userSpaceOnUse">
<stop stop-color="#184218"/>
<stop offset="0.911458" stop-color="#007900"/>
</linearGradient>
<linearGradient id="paint1_linear_51_11" x1="114.911" y1="231.82" x2="114.911" y2="240" gradientUnits="userSpaceOnUse">
<stop stop-color="#184218"/>
<stop offset="0.911458" stop-color="#007900"/>
</linearGradient>
</defs>
</svg>
